<svg id="Capa_1" enable-background="new 0 0 500.83 500.83" height="512" viewBox="0 0 500.83 500.83" width="512" xmlns="http://www.w3.org/2000/svg"><g><path d="m439.36 196.865-95.22 52.05h-93.73l-15.1-84.235 15.1-51.765h16.44c60.39 0 118.52 25.45 159.48 69.83z" fill="#b30042"/><path d="m250.41 112.915v136h-113.83l-79.88-47.61 17.67-19.03c40.93-44.08 98.9-69.36 159.04-69.36z" fill="#e40058"/><path d="m415.31 385.455v102.46h-60l-15-11.2-15 11.2h-30l-15-12.62-15 12.62h-14.9l-11.748-72.075 11.748-47.385.9-.09z" fill="#d6e9f8"/><path d="m250.41 368.455v119.46h-15.1l-15-11.2-15 11.2h-30l-15-9.77-15 9.77h-60v-102.4l-.02-.06z" fill="#e9f3fb"/><path d="m500.83 140.295-85.52 245.16h-164.9l-14.835-195.208 14.835-177.332c27.56.05 49.9 22.42 49.9 50 0 22.21-14.49 41.03-34.53 47.55l88.23 94.44z" fill="#fb3"/><path d="m250.41 12.915v372.54h-165.12l-85.29-238.82 146.35 58.54 88.49-94.71c-20.04-6.52-34.53-25.34-34.53-47.55 0-27.61 22.39-50 50-50z" fill="#ffd944"/><path d="m291.5 239.005v56.06l-41.09 37.85-9.122-67.5 9.122-67.5z" fill="#e40058"/><path d="m250.41 197.915v135l-41.08-37.85v-56.06z" fill="#ff6379"/><path d="m130.31 292.915h30v30h-30z" fill="#00cb76"/><path d="m340.31 292.915h30v30h-30z" fill="#009a85"/><path d="m325.31 427.915h30v60h-30z" fill="#5f55ae"/><path d="m265.31 427.915h30v60h-30z" fill="#5f55ae"/><g fill="#6e76e4"><path d="m205.31 427.915h30v60h-30z"/><path d="m145.31 427.915h30v60h-30z"/></g></g></svg>