<svg id="Capa_1" enable-background="new 0 0 512 512" height="512" viewBox="0 0 512 512" width="512" xmlns="http://www.w3.org/2000/svg"><g><g><g><g><g><g><g><path d="m99.489 458.599c-60.521-46.822-99.489-120.16-99.489-202.599 0-141.385 114.615-256 256-256s256 114.615 256 256c0 82.439-38.968 155.777-99.489 202.599z" fill="#a3d4ff"/></g></g></g></g></g></g><path d="m412.511 458.599c59.403-45.957 98.042-117.461 99.449-198.042l-167.963-167.963-135.221 381.813z" fill="#65b1fc"/><g><path d="m189.073 268.128v80.411l-51.188 29.533c-15.039 8.677-25.739 23.274-29.487 40.228l-8.909 40.3c43.273 33.478 97.565 53.4 156.511 53.4 1.163 0 2.321-.021 3.48-.037v-243.835z" fill="#c38778"/></g><g><path d="m403.602 418.299c-3.748-16.953-14.448-31.551-29.487-40.228l-51.188-29.533v-80.411h-66.927v243.873c58.946 0 113.238-19.922 156.511-53.401z" fill="#a65d4e"/></g><g><g><g><path d="m195.03 351.265-18.881-18.881c-6.476-6.476-6.476-16.975 0-23.45 6.476-6.476 16.975-6.476 23.45 0l18.881 18.881c6.476 6.476 6.476 16.975 0 23.45-6.475 6.476-16.974 6.476-23.45 0z" fill="#555a66"/></g><g><path d="m195.03 382.975-18.881-18.881c-6.476-6.476-6.476-16.975 0-23.45 6.476-6.476 16.975-6.476 23.45 0l18.881 18.881c6.476 6.476 6.476 16.975 0 23.45-6.475 6.476-16.974 6.476-23.45 0z" fill="#414952"/></g><g><path d="m220.059 445.734h-45.488l11.606-43.222h22.276z" fill="#414952"/></g><g><path d="m195.03 415.433-18.881-18.881c-6.476-6.476-6.476-16.975 0-23.45 6.476-6.476 16.975-6.476 23.45 0l18.881 18.881c6.476 6.476 6.476 16.975 0 23.45-6.475 6.476-16.974 6.476-23.45 0z" fill="#555a66"/></g></g><g><g><path d="m316.97 351.265 18.881-18.881c6.476-6.476 6.476-16.975 0-23.45-6.476-6.476-16.975-6.476-23.45 0l-18.881 18.881c-6.476 6.476-6.476 16.975 0 23.45 6.475 6.476 16.974 6.476 23.45 0z" fill="#333940"/></g><g><path d="m316.97 382.975 18.881-18.881c6.476-6.476 6.476-16.975 0-23.45-6.476-6.476-16.975-6.476-23.45 0l-18.881 18.881c-6.476 6.476-6.476 16.975 0 23.45 6.475 6.476 16.974 6.476 23.45 0z" fill="#23272b"/></g><g><path d="m291.94 445.734h45.489l-11.606-43.222h-22.276z" fill="#23272b"/></g><g><path d="m316.97 415.433 18.881-18.881c6.476-6.476 6.476-16.975 0-23.45-6.476-6.476-16.975-6.476-23.45 0l-18.881 18.881c-6.476 6.476-6.476 16.975 0 23.45 6.475 6.476 16.974 6.476 23.45 0z" fill="#333940"/></g></g></g><g><path d="m256 225.977c-5.136 0-9.313-4.178-9.313-9.314v-42.115c0-5.135 4.178-9.314 9.313-9.314 1.231 0 2.404.246 3.48.681v-111.627c-1.156-.033-2.316-.054-3.48-.054-66.341 0-120.313 53.972-120.313 120.314v42.115c0 66.341 53.973 120.314 120.313 120.314 1.164 0 2.323-.021 3.48-.054v-111.627c-1.076.436-2.249.681-3.48.681z" fill="#fff"/></g><g><path d="m256 54.234v111c5.136 0 9.313 4.178 9.313 9.314v42.115c0 5.135-4.178 9.314-9.313 9.314v111c66.341 0 120.313-53.972 120.313-120.314v-42.115c0-66.341-53.972-120.314-120.313-120.314z" fill="#e9edf5"/></g><g><path d="m191.186 178.476v38.187c0 35.796 29.018 64.814 64.814 64.814 35.796 0 64.814-29.018 64.814-64.814v-38.187l-62.745-6.842z" fill="#ffcdbe"/></g><g><path d="m258.068 171.635-2.068.211v109.631c35.796 0 64.814-29.018 64.814-64.814v-38.187z" fill="#faa68e"/></g><g><path d="m320.814 174.548c0-35.796-29.018-64.813-64.814-64.813-35.796 0-64.814 29.018-64.814 64.813v3.928h129.627v-3.928z" fill="#555a66"/></g><g><path d="m320.814 174.548c0-35.795-29.018-64.813-64.814-64.813v68.742h64.814z" fill="#333940"/></g><g><path d="m229.72 400.109h52.561v30h-52.561z" fill="#b46e5a"/></g><g><path d="m256 400.109h26.28v30h-26.28z" fill="#915041"/></g><g><path d="m229.72 458.5h52.561v30h-52.561z" fill="#b46e5a"/></g><g><path d="m256 458.5h26.28v30h-26.28z" fill="#915041"/></g></g></svg>